<svg width="75" height="75" viewBox="0 0 75 75" fill="none" xmlns="http://www.w3.org/2000/svg">
<rect width="75" height="75" rx="37.5" fill="#FF9D32"/>
<path d="M37 30.5H37.4344C40.4816 30.5 42.0053 30.5 42.5836 31.0473C43.0836 31.5204 43.3051 32.2173 43.1702 32.8922C43.014 33.673 41.7701 34.5529 39.2823 36.3125L35.2177 39.1875C32.7299 40.9471 31.486 41.827 31.3298 42.6078C31.1949 43.2827 31.4164 43.9796 31.9164 44.4527C32.4947 45 34.0184 45 37.0656 45H38M33.5 30.5C33.5 32.1569 32.1569 33.5 30.5 33.5C28.8431 33.5 27.5 32.1569 27.5 30.5C27.5 28.8431 28.8431 27.5 30.5 27.5C32.1569 27.5 33.5 28.8431 33.5 30.5ZM47.5 44.5C47.5 46.1569 46.1569 47.5 44.5 47.5C42.8431 47.5 41.5 46.1569 41.5 44.5C41.5 42.8431 42.8431 41.5 44.5 41.5C46.1569 41.5 47.5 42.8431 47.5 44.5Z" stroke="#FFDCA5" stroke-width="2" stroke-linecap="round" stroke-linejoin="round"/>
</svg>
