<svg width="158" height="40" viewBox="0 0 158 40" fill="none" xmlns="http://www.w3.org/2000/svg">
<g clip-path="url(#clip0_1339_2764)">
<path d="M55.1677 39.9679C52.0566 39.9679 49.0566 38.829 47.289 35.8251H46.2626V39.1131H39.1895V0H46.2626V14.2292H47.289C49.1047 11.1141 52.4995 9.91354 55.5624 9.91354C63.2043 9.91354 68.3679 16.0326 68.3679 24.6492C68.3679 33.2658 62.6997 39.9531 55.1677 39.9531V39.9691V39.9679ZM53.6368 33.629C57.995 33.629 61.1047 30.0556 61.1047 24.9494C61.1047 19.8431 57.9308 16.2698 53.6368 16.2698C49.3428 16.2698 46.2787 19.669 46.2787 24.9494C46.2787 30.2297 49.3897 33.629 53.6368 33.629ZM81.4411 39.9679C76.0098 39.9679 71.5887 36.6798 71.5887 31.2883C71.5887 25.8967 76.4514 22.8928 82.3416 22.2764L90.6631 21.4229V19.8419C90.6631 17.4074 88.6734 15.6991 85.1689 15.6991C81.6644 15.6991 79.8955 17.169 79.2799 19.3824H72.4904C73.1689 13.9909 77.6381 9.9123 85.1689 9.9123C92.6997 9.9123 97.2318 13.4227 97.2318 20.2841V34.1181C97.2318 35.8733 97.4057 38.3078 97.5155 38.9872V39.0983H90.726C90.6631 38.1336 90.6631 37.2332 90.6631 36.2685H89.6368C87.8839 39.0983 84.821 39.9518 81.4263 39.9518L81.4423 39.9679H81.4411ZM83.3679 34.6406C88.0098 34.6406 90.6779 31.1302 90.6779 27.5581V26.1351L84.4411 26.8787C80.5887 27.337 78.7248 28.4597 78.7248 30.9573C78.7248 33.4548 80.6516 34.6406 83.3667 34.6406H83.3679ZM114.236 39.9679C107.099 39.9679 101.999 36.3945 101.21 30.7819H108.173C108.963 33.2794 111.568 34.3552 114.284 34.3552C117.001 34.3552 119.321 33.1695 119.321 31.0672C119.321 28.9649 117.173 28.3955 114.222 27.8891L111.222 27.3827C105.553 26.418 102.048 24.0304 102.048 18.9402C102.048 13.85 106.91 9.92836 113.653 9.92836C120.395 9.92836 124.58 12.9953 125.764 18.3239H118.974C118.185 16.2216 116.085 15.3829 113.701 15.3829C111.317 15.3829 108.948 16.6317 108.948 18.3869C108.948 20.142 110.416 20.7745 113.48 21.2796L116.48 21.7861C121.974 22.6877 126.159 24.9642 126.159 30.4657C126.159 35.9671 121.169 39.9988 114.205 39.9988L114.238 39.9666L114.236 39.9679ZM143.904 39.9679C135.188 39.9679 129.41 34.0069 129.41 24.8851C129.41 15.7633 135.521 9.9123 143.969 9.9123C152.416 9.9123 157.895 16.4896 157.895 25.1692V26.418H136.327C136.675 31.129 139.958 33.8957 143.922 33.8957C147.885 33.8957 149.195 32.7569 150.159 30.7806H157.406C155.938 36.1092 150.663 39.9666 143.922 39.9666H143.906L143.904 39.9679ZM150.979 21.7231C150.41 17.9286 147.41 15.7152 143.906 15.7152C140.401 15.7152 137.116 17.8656 136.438 21.7231H150.996H150.98H150.979Z" fill="#1C1C1C"/>
<path d="M1.70477 39.1305C0.567434 39.1305 0 38.5611 0 37.4235V12.4741C0 11.3353 0.568668 10.7671 1.70477 10.7671H26.6201C27.7574 10.7671 28.3248 11.3365 28.3248 12.4741V37.4222C28.3248 38.5611 27.7562 39.1292 26.6201 39.1292H1.70477V39.1305Z" fill="#0000FF"/>
</g>
<defs>
<clipPath id="clip0_1339_2764">
<rect width="157.895" height="40" fill="white"/>
</clipPath>
</defs>
</svg>
