<svg width="171" height="39" viewBox="0 0 171 39" fill="none" xmlns="http://www.w3.org/2000/svg">
<g clip-path="url(#clip0_1339_2762)">
<path fill-rule="evenodd" clip-rule="evenodd" d="M38.9297 0H0.652344V38.523H38.929V25.0758H32.5766C30.3869 29.9814 25.4582 33.3981 19.8178 33.3981C12.0418 33.3981 5.74458 27.0058 5.74458 19.2345C5.74458 11.4633 12.0418 5.12568 19.8178 5.12568C25.5676 5.12568 30.4963 8.6531 32.6869 13.668H38.9297V0ZM75.9985 25.0751C73.7537 29.9805 68.8798 33.397 63.1853 33.3974C55.628 33.3974 49.4402 27.3351 49.1665 19.7847H82.3508V0H44.0734V38.5221H82.3508V25.0751H75.9985ZM76.4891 15.0455H49.7663C51.4637 8.70777 57.1034 5.12574 63.182 5.12574C69.2605 5.12574 74.518 8.48693 76.4891 15.0455ZM165.007 19.2337C165.007 27.0597 158.764 33.3974 150.988 33.3974C143.266 33.3974 136.969 27.0049 136.969 19.2337C136.969 11.4625 143.212 5.1249 150.988 5.1249C158.764 5.1249 165.007 11.4079 165.007 19.2337ZM170.153 0H131.876V38.523H170.153V0ZM120.738 25.0751H127.09V38.5221H87.4444V0H93.9059V19.2337C93.9059 27.8315 100.258 33.3426 107.815 33.3426C113.674 33.3426 118.821 30.1453 120.738 25.0751Z" fill="#1C1C1C"/>
</g>
<defs>
<clipPath id="clip0_1339_2762">
<rect width="171" height="39" fill="white"/>
</clipPath>
</defs>
</svg>
