<svg width="75" height="75" viewBox="0 0 75 75" fill="none" xmlns="http://www.w3.org/2000/svg">
<rect width="75" height="75" rx="37.5" fill="#FF9D32"/>
<path d="M31.5 36.5V40.5M43.5 34.5V38.5M42.5 29.5C44.9487 29.5 46.2731 29.8748 46.9321 30.1654C47.0199 30.2042 47.0638 30.2235 47.1904 30.3444C47.2663 30.4168 47.4049 30.6294 47.4405 30.7281C47.5 30.8927 47.5 30.9827 47.5 31.1627V41.9111C47.5 42.8199 47.5 43.2743 47.3637 43.5079C47.2251 43.7454 47.0914 43.8559 46.8319 43.9472C46.5769 44.0369 46.062 43.938 45.0322 43.7401C44.3114 43.6017 43.4565 43.5 42.5 43.5C39.5 43.5 36.5 45.5 32.5 45.5C30.0513 45.5 28.7269 45.1252 28.0679 44.8346C27.9801 44.7958 27.9362 44.7765 27.8096 44.6556C27.7337 44.5832 27.5951 44.3706 27.5595 44.2719C27.5 44.1073 27.5 44.0173 27.5 43.8373L27.5 33.0889C27.5 32.1801 27.5 31.7257 27.6363 31.4921C27.7749 31.2546 27.9086 31.1441 28.1681 31.0528C28.4231 30.9631 28.938 31.062 29.9678 31.2598C30.6886 31.3983 31.5435 31.5 32.5 31.5C35.5 31.5 38.5 29.5 42.5 29.5ZM40 37.5C40 38.8807 38.8807 40 37.5 40C36.1193 40 35 38.8807 35 37.5C35 36.1193 36.1193 35 37.5 35C38.8807 35 40 36.1193 40 37.5Z" stroke="#FFDCA5" stroke-width="2" stroke-linecap="round" stroke-linejoin="round"/>
</svg>
