<svg width="75" height="75" viewBox="0 0 75 75" fill="none" xmlns="http://www.w3.org/2000/svg">
<rect width="75" height="75" rx="37.5" fill="#F6F6F6"/>
<path d="M36.5 30H43.8C44.9201 30 45.4802 30 45.908 30.218C46.2843 30.4097 46.5903 30.7157 46.782 31.092C47 31.5198 47 32.0799 47 33.2V34.5C47 35.4319 47 35.8978 46.8478 36.2654C46.6448 36.7554 46.2554 37.1448 45.7654 37.3478C45.3978 37.5 44.9319 37.5 44 37.5M38.5 45H31.2C30.0799 45 29.5198 45 29.092 44.782C28.7157 44.5903 28.4097 44.2843 28.218 43.908C28 43.4802 28 42.9201 28 41.8V40.5C28 39.5681 28 39.1022 28.1522 38.7346C28.3552 38.2446 28.7446 37.8552 29.2346 37.6522C29.6022 37.5 30.0681 37.5 31 37.5M35.8 40H39.2C39.48 40 39.62 40 39.727 39.9455C39.8211 39.8976 39.8976 39.8211 39.9455 39.727C40 39.62 40 39.48 40 39.2V35.8C40 35.52 40 35.38 39.9455 35.273C39.8976 35.1789 39.8211 35.1024 39.727 35.0545C39.62 35 39.48 35 39.2 35H35.8C35.52 35 35.38 35 35.273 35.0545C35.1789 35.1024 35.1024 35.1789 35.0545 35.273C35 35.38 35 35.52 35 35.8V39.2C35 39.48 35 39.62 35.0545 39.727C35.1024 39.8211 35.1789 39.8976 35.273 39.9455C35.38 40 35.52 40 35.8 40ZM43.3 47.5H46.7C46.98 47.5 47.12 47.5 47.227 47.4455C47.3211 47.3976 47.3976 47.3211 47.4455 47.227C47.5 47.12 47.5 46.98 47.5 46.7V43.3C47.5 43.02 47.5 42.88 47.4455 42.773C47.3976 42.6789 47.3211 42.6024 47.227 42.5545C47.12 42.5 46.98 42.5 46.7 42.5H43.3C43.02 42.5 42.88 42.5 42.773 42.5545C42.6789 42.6024 42.6024 42.6789 42.5545 42.773C42.5 42.88 42.5 43.02 42.5 43.3V46.7C42.5 46.98 42.5 47.12 42.5545 47.227C42.6024 47.3211 42.6789 47.3976 42.773 47.4455C42.88 47.5 43.02 47.5 43.3 47.5ZM28.3 32.5H31.7C31.98 32.5 32.12 32.5 32.227 32.4455C32.3211 32.3976 32.3976 32.3211 32.4455 32.227C32.5 32.12 32.5 31.98 32.5 31.7V28.3C32.5 28.02 32.5 27.88 32.4455 27.773C32.3976 27.6789 32.3211 27.6024 32.227 27.5545C32.12 27.5 31.98 27.5 31.7 27.5H28.3C28.02 27.5 27.88 27.5 27.773 27.5545C27.6789 27.6024 27.6024 27.6789 27.5545 27.773C27.5 27.88 27.5 28.02 27.5 28.3V31.7C27.5 31.98 27.5 32.12 27.5545 32.227C27.6024 32.3211 27.6789 32.3976 27.773 32.4455C27.88 32.5 28.02 32.5 28.3 32.5Z" stroke="black" stroke-width="2" stroke-linecap="round" stroke-linejoin="round"/>
</svg>
