<svg width="959" height="216" viewBox="0 0 959 216" fill="none" xmlns="http://www.w3.org/2000/svg">
<g opacity="0.3" filter="url(#filter0_f_1339_2665)">
<g clip-path="url(#clip0_1339_2665)">
<path d="M285.016 237.435V131.968H356.003V148.194H303.85V177.021H352.235V192.815H303.85V237.435H285.016Z" fill="#1C1C1C"/>
<path d="M356.465 237.435L399.056 176.734V190.641L359.363 131.968H380.804L393.695 151.525C395.291 153.842 396.74 156.16 398.189 158.479C399.782 160.798 401.231 163.114 402.68 165.435C404.129 167.607 405.578 169.926 406.881 172.245H402.534C403.983 169.926 405.432 167.61 406.881 165.435C408.331 163.116 409.923 160.8 411.373 158.479C412.822 156.163 414.415 153.844 415.864 151.525L429.191 131.968H450.054L410.795 189.627V176.3L452.663 237.435H431.079L414.853 213.532C413.55 211.504 412.244 209.475 410.941 207.448C409.492 205.42 408.189 203.537 406.884 201.508C405.581 199.479 404.275 197.45 402.972 195.424H406.158C404.855 197.453 403.55 199.482 402.246 201.508C400.943 203.537 399.494 205.42 398.189 207.448C396.886 209.477 395.437 211.506 394.131 213.532L377.616 237.435H356.463H356.465Z" fill="#1C1C1C"/>
<path d="M498.498 237.435V131.968H539.64C547.465 131.968 554.129 133.417 559.777 136.169C565.428 138.921 569.773 142.833 572.817 147.758C575.859 152.828 577.308 158.769 577.308 165.722C577.308 172.532 575.713 178.47 572.527 183.543C569.341 188.468 564.704 192.38 558.908 194.988C553.113 197.738 546.304 199.046 538.483 199.046H509.653V183.689H538.773C542.972 183.689 546.45 182.966 549.494 181.517C552.536 179.922 554.855 177.895 556.447 175.287C558.186 172.534 558.91 169.346 558.91 165.725C558.91 162.105 558.189 158.917 556.447 156.311C554.855 153.559 552.536 151.53 549.494 150.081C546.45 148.632 542.83 147.908 538.629 147.908H517.332V237.44H498.498V237.435ZM558.766 237.435L534.281 189.917H554.273L579.337 237.435H558.766Z" fill="#1C1C1C"/>
<path d="M617.107 239.169C609.718 239.169 603.2 237.433 597.839 234.101C592.333 230.769 588.131 226.134 585.092 220.34C582.193 214.399 580.744 207.733 580.744 200.203C580.744 192.523 582.193 185.859 585.238 179.919C588.28 173.979 592.481 169.49 597.842 166.012C603.202 162.68 609.43 161.085 616.384 161.085C621.744 161.085 626.669 161.954 631.017 163.837C635.508 165.72 639.276 168.331 642.461 171.804C645.503 175.282 647.968 179.483 649.705 184.118C651.441 188.899 652.167 194.114 652.167 199.908V204.689H587.7V192.375H643.331L635.362 195.707C635.362 191.508 634.495 187.884 633.045 184.844C631.45 181.8 629.424 179.337 626.528 177.744C623.776 176.008 620.444 175.136 616.674 175.136C612.908 175.136 609.72 176.005 606.822 177.744C604.07 179.34 601.897 181.802 600.448 184.844C598.999 187.886 598.129 191.508 598.129 195.707V203.532C598.129 207.731 598.999 211.499 600.448 214.831C601.897 218.017 604.213 220.625 607.112 222.364C610.008 224.101 613.486 225.114 617.541 225.114C620.585 225.114 623.191 224.68 625.508 223.667C627.826 222.798 629.709 221.638 631.304 219.899C632.751 218.306 633.913 216.421 634.636 214.395H651.295C650.426 219.174 648.251 223.521 645.065 227.286C641.879 230.908 637.968 233.804 633.187 235.979C628.26 238.008 623.045 239.165 617.105 239.165L617.107 239.169Z" fill="#1C1C1C"/>
<path d="M663.571 237.43V162.678H680.956V179.047H679.653C680.956 174.992 682.838 171.804 685.159 169.052C687.622 166.443 690.374 164.56 693.562 163.257C696.606 161.808 699.938 161.229 703.416 161.229C709.211 161.229 714.138 162.824 718.337 166.156C722.394 169.487 725 173.686 725.87 179.047H723.551C724.567 175.428 726.303 172.383 728.622 169.634C731.084 167.023 733.983 164.999 737.315 163.403C740.793 161.954 744.558 161.231 748.759 161.231C753.394 161.231 757.596 162.246 761.507 164.275C765.273 166.304 768.171 169.344 770.343 173.401C772.662 177.313 773.675 182.24 773.675 188.178V237.435H755.857V190.64C755.857 185.713 754.407 182.094 751.799 179.775C749.047 177.605 745.859 176.443 741.947 176.443C739.049 176.443 736.44 177.023 734.268 178.328C732.098 179.631 730.356 181.37 729.199 183.689C727.896 186.005 727.317 188.614 727.317 191.512V237.435H709.932V189.917C709.932 185.716 708.772 182.527 706.164 180.065C703.701 177.603 700.37 176.443 696.458 176.443C693.706 176.443 691.243 177.023 689.069 178.328C686.752 179.488 685.011 181.37 683.562 183.833C682.259 186.298 681.533 189.34 681.533 192.815V237.435H663.568L663.571 237.43Z" fill="#1C1C1C"/>
<path d="M787.928 237.432V162.679H805.746V237.432H787.928ZM796.766 151.666C793.722 151.666 791.116 150.653 789.087 148.624C787.058 146.741 786.045 144.279 786.045 141.38C786.045 138.628 787.058 136.166 789.087 134.283C791.116 132.254 793.722 131.385 796.766 131.385C799.808 131.385 802.273 132.254 804.299 134.283C806.328 136.166 807.341 138.628 807.341 141.526C807.341 144.422 806.328 146.741 804.299 148.77C802.271 150.653 799.806 151.666 796.766 151.666Z" fill="#1C1C1C"/>
<path d="M859.022 162.676V177.017H812.807V162.676H859.022ZM825.847 142.393H843.811V215.988C843.811 218.597 844.245 220.479 845.404 221.495C846.42 222.508 848.449 223.088 851.347 223.088C852.506 223.088 853.809 223.088 855.402 223.088C856.851 223.088 858.013 223.088 859.024 223.088V237.431C857.721 237.431 856.126 237.431 854.097 237.431C852.214 237.431 850.185 237.431 848.303 237.431C840.626 237.431 834.975 235.836 831.351 232.796C827.732 229.754 825.847 224.973 825.847 218.599V142.397V142.393Z" fill="#1C1C1C"/>
<path fill-rule="evenodd" clip-rule="evenodd" d="M100 176.747L184.403 136.787V136.574L185.043 100L100 141.306V176.747Z" fill="#FF6600"/>
<path fill-rule="evenodd" clip-rule="evenodd" d="M258.663 127.898L100.014 190.314V225.751L258.663 166.779V127.898Z" fill="#FF6600"/>
<path fill-rule="evenodd" clip-rule="evenodd" d="M258.65 239.162L100 176.742V141.307L258.65 200.281V239.162Z" fill="#2261FE"/>
<path fill-rule="evenodd" clip-rule="evenodd" d="M100.014 190.313L184.416 230.273V230.486L185.056 267.062L100.014 225.754V190.313Z" fill="#2261FE"/>
</g>
</g>
<defs>
<filter id="filter0_f_1339_2665" x="0" y="0" width="959" height="367.06" filterUnits="userSpaceOnUse" color-interpolation-filters="sRGB">
<feFlood flood-opacity="0" result="BackgroundImageFix"/>
<feBlend mode="normal" in="SourceGraphic" in2="BackgroundImageFix" result="shape"/>
<feGaussianBlur stdDeviation="50" result="effect1_foregroundBlur_1339_2665"/>
</filter>
<clipPath id="clip0_1339_2665">
<rect width="759" height="167.059" fill="white" transform="translate(100 100)"/>
</clipPath>
</defs>
</svg>
