<svg width="123" height="27" viewBox="0 0 123 27" fill="none" xmlns="http://www.w3.org/2000/svg">
<g clip-path="url(#clip0_1339_2597)">
<path d="M29.8223 22.152V5.15234H41.2642V7.76767H32.858V12.4142H40.6569V14.96H32.858V22.152H29.8223Z" fill="black"/>
<path d="M41.3383 22.152L48.2032 12.3678V14.6094L41.8054 5.15234H45.2613L47.3392 8.30471C47.5963 8.67806 47.8299 9.05179 48.0634 9.42551C48.3202 9.79924 48.5538 10.1726 48.7873 10.5467C49.0209 10.8969 49.2545 11.2706 49.4645 11.6443H48.7638C48.9974 11.2706 49.231 10.8972 49.4645 10.5467C49.6981 10.173 49.9549 9.79961 50.1884 9.42551C50.422 9.05216 50.6788 8.67844 50.9123 8.30471L53.0605 5.15234H56.4233L50.0954 14.4461V12.298L56.8437 22.152H53.3647L50.7494 18.2992C50.5394 17.9722 50.329 17.6452 50.1189 17.3186C49.8853 16.9916 49.6753 16.6881 49.4649 16.3611C49.2549 16.0341 49.0445 15.7071 48.8344 15.3804H49.3479C49.1379 15.7075 48.9275 16.0345 48.7175 16.3611C48.5074 16.6881 48.2738 16.9916 48.0634 17.3186C47.8534 17.6456 47.6198 17.9726 47.4094 18.2992L44.7474 22.152H41.3379H41.3383Z" fill="black"/>
<path d="M64.2324 22.152V5.15234H70.8638C72.1251 5.15234 73.1992 5.38592 74.1096 5.82953C75.0204 6.27314 75.7207 6.90362 76.2114 7.69741C76.7017 8.51475 76.9353 9.47223 76.9353 10.593C76.9353 11.6907 76.6782 12.6478 76.1647 13.4655C75.6512 14.2593 74.9038 14.8897 73.9694 15.3102C73.0355 15.7534 71.9379 15.9642 70.6773 15.9642H66.0304V13.489H70.724C71.4008 13.489 71.9614 13.3724 72.4521 13.1388C72.9425 12.8817 73.3162 12.5551 73.5729 12.1346C73.8532 11.691 73.9698 11.1772 73.9698 10.5934C73.9698 10.01 73.8536 9.49615 73.5729 9.07608C73.3162 8.63247 72.9425 8.30546 72.4521 8.07188C71.9614 7.8383 71.378 7.7217 70.7009 7.7217H67.2682V22.1527H64.2324V22.152ZM73.9467 22.152L70.0001 14.4928H73.2224L77.2623 22.152H73.9467Z" fill="black"/>
<path d="M83.3494 22.4316C82.1583 22.4316 81.1078 22.1517 80.2438 21.6147C79.3562 21.0776 78.679 20.3306 78.189 19.3966C77.7219 18.4391 77.4883 17.3647 77.4883 16.1508C77.4883 14.913 77.7219 13.839 78.2126 12.8815C78.7029 11.924 79.3801 11.2005 80.2441 10.6399C81.1082 10.1028 82.112 9.8457 83.2328 9.8457C84.0969 9.8457 84.8907 9.98585 85.5914 10.2893C86.3153 10.5928 86.9226 11.0136 87.4361 11.5734C87.9264 12.134 88.3237 12.8112 88.6036 13.5583C88.8835 14.3289 89.0005 15.1694 89.0005 16.1034V16.874H78.6095V14.8891H87.5762L86.2917 15.4262C86.2917 14.7493 86.152 14.1652 85.9184 13.6753C85.6613 13.1846 85.3346 12.7877 84.8679 12.5309C84.4242 12.251 83.8872 12.1105 83.2795 12.1105C82.6726 12.1105 82.1587 12.2506 81.6916 12.5309C81.248 12.788 80.8978 13.1849 80.6642 13.6753C80.4306 14.1656 80.2905 14.7493 80.2905 15.4262V16.6875C80.2905 17.3643 80.4306 17.9716 80.6642 18.5086C80.8978 19.0221 81.2711 19.4426 81.7383 19.7229C82.2051 20.0028 82.7657 20.1661 83.4193 20.1661C83.91 20.1661 84.3301 20.0962 84.7034 19.9329C85.0771 19.7928 85.3806 19.6059 85.6377 19.3256C85.8709 19.0689 86.0582 18.765 86.1748 18.4384H88.86C88.7198 19.2086 88.3693 19.9094 87.8558 20.5163C87.3423 21.1 86.7118 21.5668 85.9412 21.9174C85.147 22.2444 84.3065 22.4309 83.349 22.4309L83.3494 22.4316Z" fill="black"/>
<path d="M90.8383 22.1516V10.1027H93.6405V12.7412H93.4304C93.6404 12.0876 93.9439 11.5737 94.318 11.1301C94.7149 10.7096 95.1585 10.4062 95.6724 10.1961C96.1631 9.96257 96.7001 9.86914 97.2607 9.86914C98.1947 9.86914 98.9888 10.1263 99.6656 10.6633C100.32 11.2003 100.74 11.8772 100.88 12.7412H100.506C100.67 12.1578 100.95 11.6671 101.323 11.2239C101.72 10.8031 102.188 10.4768 102.725 10.2197C103.285 9.98612 103.892 9.86951 104.569 9.86951C105.316 9.86951 105.994 10.0332 106.624 10.3602C107.231 10.6872 107.698 11.1772 108.048 11.8312C108.422 12.4617 108.585 13.2558 108.585 14.2129V22.1524H105.713V14.6098C105.713 13.8157 105.48 13.2323 105.059 12.8586C104.616 12.5088 104.102 12.3215 103.471 12.3215C103.004 12.3215 102.584 12.415 102.234 12.6254C101.884 12.8354 101.603 13.1157 101.417 13.4894C101.207 13.8628 101.113 14.2832 101.113 14.7504V22.1524H98.3109V14.4932C98.3109 13.816 98.124 13.3022 97.7036 12.9053C97.3067 12.5084 96.7696 12.3215 96.1392 12.3215C95.6956 12.3215 95.2987 12.415 94.9481 12.6254C94.5748 12.8122 94.2941 13.1157 94.0605 13.5126C93.8505 13.9099 93.7335 14.4002 93.7335 14.9604V22.1524H90.8379L90.8383 22.1516Z" fill="black"/>
<path d="M110.884 22.1516V10.1028H113.756V22.1516H110.884ZM112.308 8.32756C111.817 8.32756 111.397 8.16425 111.07 7.83724C110.743 7.53377 110.58 7.13688 110.58 6.66972C110.58 6.22611 110.743 5.82921 111.07 5.52575C111.397 5.19874 111.817 5.05859 112.308 5.05859C112.799 5.05859 113.196 5.19874 113.522 5.52575C113.849 5.82921 114.013 6.22611 114.013 6.69327C114.013 7.16005 113.849 7.53377 113.522 7.86078C113.195 8.16425 112.798 8.32756 112.308 8.32756Z" fill="black"/>
<path d="M122.342 10.1024V12.4138H114.893V10.1024H122.342ZM116.994 6.83301H119.89V18.6954C119.89 19.1158 119.96 19.4193 120.147 19.583C120.31 19.7463 120.637 19.8398 121.105 19.8398C121.291 19.8398 121.502 19.8398 121.758 19.8398C121.992 19.8398 122.179 19.8398 122.342 19.8398V22.1516C122.132 22.1516 121.875 22.1516 121.548 22.1516C121.244 22.1516 120.917 22.1516 120.614 22.1516C119.377 22.1516 118.466 21.8945 117.882 21.4045C117.298 20.9142 116.994 20.1436 116.994 19.1162V6.83376V6.83301Z" fill="black"/>
<path fill-rule="evenodd" clip-rule="evenodd" d="M0 12.3703L13.6043 5.92952V5.89513L13.7075 0L0 6.65791V12.3703Z" fill="#FF6600"/>
<path fill-rule="evenodd" clip-rule="evenodd" d="M25.5737 4.49658L0.00195312 14.5569V20.2689L25.5737 10.7636V4.49658Z" fill="#FF6600"/>
<path fill-rule="evenodd" clip-rule="evenodd" d="M25.5717 22.4304L0 12.3694V6.65771L25.5717 16.1634V22.4304Z" fill="#2261FE"/>
<path fill-rule="evenodd" clip-rule="evenodd" d="M0.00195312 14.5566L13.6063 20.9974V21.0318L13.7094 26.9273L0.00195312 20.269V14.5566Z" fill="#2261FE"/>
</g>
<defs>
<clipPath id="clip0_1339_2597">
<rect width="122.338" height="26.9272" fill="white"/>
</clipPath>
</defs>
</svg>
