<svg width="75" height="75" viewBox="0 0 75 75" fill="none" xmlns="http://www.w3.org/2000/svg">
<rect width="75" height="75" rx="37.5" fill="#FF9D32"/>
<path d="M35.5002 38.5C35.9297 39.0741 36.4776 39.5491 37.1067 39.8929C37.7359 40.2367 38.4317 40.4411 39.1468 40.4923C39.862 40.5435 40.5798 40.4403 41.2515 40.1897C41.9233 39.9392 42.5333 39.547 43.0402 39.04L46.0402 36.04C46.951 35.097 47.455 33.8339 47.4436 32.523C47.4322 31.212 46.9063 29.9579 45.9793 29.0309C45.0523 28.1038 43.7982 27.578 42.4872 27.5666C41.1762 27.5552 39.9132 28.0592 38.9702 28.97L37.2502 30.68M39.5002 36.5C39.0707 35.9258 38.5228 35.4508 37.8936 35.107C37.2645 34.7633 36.5687 34.5588 35.8535 34.5076C35.1384 34.4564 34.4206 34.5596 33.7489 34.8102C33.0771 35.0608 32.4671 35.4529 31.9602 35.96L28.9602 38.96C28.0494 39.903 27.5454 41.166 27.5568 42.477C27.5682 43.788 28.0941 45.042 29.0211 45.9691C29.9481 46.8961 31.2022 47.4219 32.5132 47.4333C33.8242 47.4447 35.0872 46.9408 36.0302 46.03L37.7402 44.32" stroke="#FFDCA5" stroke-width="2" stroke-linecap="round" stroke-linejoin="round"/>
</svg>
