<svg width="60" height="60" viewBox="0 0 60 60" fill="none" xmlns="http://www.w3.org/2000/svg">
<rect width="60" height="60" rx="30" fill="#2261FE"/>
<path d="M38 39C38 37.6044 38 36.9067 37.8278 36.3389C37.44 35.0605 36.4395 34.06 35.1611 33.6722C34.5933 33.5 33.8956 33.5 32.5 33.5H27.5C26.1044 33.5 25.4067 33.5 24.8389 33.6722C23.5605 34.06 22.56 35.0605 22.1722 36.3389C22 36.9067 22 37.6044 22 39M34.5 25.5C34.5 27.9853 32.4853 30 30 30C27.5147 30 25.5 27.9853 25.5 25.5C25.5 23.0147 27.5147 21 30 21C32.4853 21 34.5 23.0147 34.5 25.5Z" stroke="#B9D8FF" stroke-width="2" stroke-linecap="round" stroke-linejoin="round"/>
</svg>
