<svg width="75" height="75" viewBox="0 0 75 75" fill="none" xmlns="http://www.w3.org/2000/svg">
<rect width="75" height="75" rx="37.5" fill="#F6F6F6"/>
<path d="M34.5 37.0004L36.5 39.0004L41 34.5004M45.5 37.5004C45.5 42.4088 40.146 45.9788 38.198 47.1152C37.9766 47.2444 37.8659 47.309 37.7097 47.3425C37.5884 47.3685 37.4116 47.3685 37.2903 47.3425C37.1341 47.309 37.0234 47.2444 36.802 47.1152C34.854 45.9788 29.5 42.4088 29.5 37.5004V32.718C29.5 31.9184 29.5 31.5187 29.6308 31.1751C29.7463 30.8715 29.934 30.6006 30.1777 30.3859C30.4535 30.1428 30.8278 30.0024 31.5764 29.7217L36.9382 27.711C37.1461 27.6331 37.25 27.5941 37.357 27.5786C37.4518 27.5649 37.5482 27.5649 37.643 27.5786C37.75 27.5941 37.8539 27.6331 38.0618 27.711L43.4236 29.7217C44.1722 30.0024 44.5465 30.1428 44.8223 30.3859C45.066 30.6006 45.2537 30.8715 45.3692 31.1751C45.5 31.5187 45.5 31.9184 45.5 32.718V37.5004Z" stroke="#2261FE" stroke-width="2" stroke-linecap="round" stroke-linejoin="round"/>
</svg>
