<svg width="75" height="75" viewBox="0 0 75 75" fill="none" xmlns="http://www.w3.org/2000/svg">
<rect width="75" height="75" rx="37.5" fill="#2261FE"/>
<g clip-path="url(#clip0_1339_2741)">
<path d="M36.2014 38.25L31.4382 41M31.5107 41.2947L32.9759 48.5025C33.091 49.0687 33.1486 49.3518 33.29 49.465C33.4127 49.5633 33.5746 49.5982 33.7269 49.559C33.9023 49.514 34.0712 49.2796 34.409 48.8108L45.1214 33.9424C45.4511 33.4848 45.616 33.256 45.6044 33.077C45.5944 32.9215 45.5125 32.7796 45.3828 32.6932C45.2336 32.5937 44.9531 32.622 44.3919 32.6788L26.1529 34.5225C25.5798 34.5805 25.2932 34.6094 25.1665 34.7386C25.0565 34.8507 25.0056 35.008 25.029 35.1634C25.056 35.3422 25.2713 35.5336 25.7019 35.9164L31.2583 40.8562C31.3322 40.922 31.3692 40.9548 31.3985 40.9934C31.4245 41.0275 31.4461 41.0649 31.4625 41.1046C31.4811 41.1493 31.491 41.1978 31.5107 41.2947Z" stroke="#B9D8FF" stroke-width="2" stroke-linecap="round" stroke-linejoin="round"/>
</g>
<defs>
<clipPath id="clip0_1339_2741">
<rect width="24" height="24" fill="white" transform="translate(21.1074 33.1079) rotate(-30)"/>
</clipPath>
</defs>
</svg>
