<svg width="516" height="326" viewBox="0 0 516 326" fill="none" xmlns="http://www.w3.org/2000/svg">
<g clip-path="url(#clip0_1339_2714)">
<mask id="mask0_1339_2714" style="mask-type:luminance" maskUnits="userSpaceOnUse" x="-585" y="-45" width="1114" height="696">
<path d="M-584.564 -44.8452H528.999V651H-584.564V-44.8452Z" fill="white"/>
</mask>
<g mask="url(#mask0_1339_2714)">
<path fill-rule="evenodd" clip-rule="evenodd" d="M-768.848 -16.8248L-768.847 -16.8259L-757.146 -12.2234L-768.84 -7.62319L-768.841 -7.62428V-7.62319V16.407L-711.16 44.4195L-711.594 19.6156V19.4709L-740.4 5.83676L-725.402 0.263428L-661.241 25.5001V-0.866364L-691.804 -12.2245L-661.235 -23.5849V-49.9503L-725.401 -24.7103L-740.406 -30.2869L-711.6 -43.9211V-44.0657L-711.166 -68.8685L-768.848 -40.8561V-16.8259V-16.8248ZM-667.336 658.273L-667.338 658.272L-672.804 646.955L-661.095 651.512L-661.094 651.514L-661.093 651.513L-644.778 633.867V633.866L-668.117 574.151L-684.637 592.658L-684.735 592.764L-672.84 622.326L-687.638 616.24L-717.616 554.164L-735.517 573.526L-720.788 602.607L-750.946 590.203L-768.848 609.565L-704.593 634.579L-697.361 648.856L-727.771 639.319L-727.868 639.425L-745.026 657.343L-683.652 675.921H-683.651L-667.337 658.274L-667.336 658.273ZM-528.794 622.978L-528.797 622.98L-540.496 618.378L-528.801 613.778L-528.8 613.779V613.778V589.747L-586.482 561.735L-586.047 586.538V586.682L-557.24 600.318L-572.239 605.892L-636.4 580.653V607.019L-605.836 618.378L-636.406 629.739V656.105L-572.239 630.865L-557.235 636.44L-586.041 650.074V650.219L-586.476 675.023L-528.794 647.01V622.981V622.978ZM-418.915 658.273L-418.917 658.272L-424.383 646.955L-412.674 651.512L-412.673 651.514L-412.672 651.513L-396.357 633.867V633.866L-419.696 574.151L-436.215 592.658L-436.314 592.764L-424.419 622.326L-439.216 616.24L-469.196 554.164L-487.097 573.526L-472.368 602.606L-502.525 590.203L-520.426 609.565L-456.173 634.578L-448.94 648.856L-479.35 639.319L-479.447 639.425L-496.605 657.343L-435.231 675.921H-435.23L-418.916 658.274L-418.915 658.273ZM-280.378 622.978L-280.381 622.98L-292.08 618.378L-280.386 613.778L-280.384 613.779V613.778V589.747L-338.066 561.735L-337.631 586.538V586.682L-308.824 600.318L-323.823 605.892L-387.985 580.653V607.019L-357.42 618.378L-387.99 629.739V656.105L-323.823 630.865L-308.821 636.44L-337.627 650.074V650.219L-338.061 675.023L-280.378 647.01V622.981V622.978ZM-170.499 658.273L-170.501 658.272L-175.967 646.955L-164.258 651.512L-164.257 651.514L-164.256 651.513L-147.942 633.867V633.866L-171.28 574.151L-187.8 592.658L-187.899 592.764L-176.003 622.325L-190.801 616.24L-220.78 554.164L-238.682 573.526L-223.952 602.607L-254.11 590.203L-272.011 609.565L-207.757 634.578L-200.525 648.856L-230.934 639.319L-231.031 639.425L-248.19 657.343L-186.816 675.921H-186.814L-170.5 658.274L-170.499 658.273ZM-31.9633 622.978L-31.9666 622.98L-43.6656 618.378L-31.971 613.778L-31.9699 613.779V613.778V589.747L-89.6505 561.735L-89.2165 586.538V586.682L-60.4096 600.318L-75.4088 605.892L-139.569 580.653V607.019L-109.005 618.378L-139.575 629.739V656.105L-75.4077 630.865L-60.4052 636.44L-89.2111 650.074V650.219L-89.6451 675.023L-31.9633 647.01V622.981V622.978ZM77.9167 658.273L77.9145 658.272L72.4487 646.955L84.1575 651.512L84.1586 651.514L84.1597 651.513L100.474 633.867V633.866L77.1353 574.151L60.6148 592.658L60.5162 592.764L72.4125 622.325L57.615 616.24L27.6354 554.164L9.73395 573.526L24.4634 602.607L-5.69482 590.203L-23.5963 609.565L40.6595 634.579L47.8911 648.856L17.4818 639.319L17.3842 639.425L0.225891 657.343L61.6001 675.921H61.6013L77.9156 658.274L77.9167 658.273ZM216.452 622.978L216.449 622.98L204.75 618.378L216.445 613.778L216.446 613.779V613.778V589.747L158.765 561.735L159.199 586.538V586.682L188.006 600.318L173.007 605.892L108.845 580.653V607.019L139.41 618.378L108.841 629.739V656.105L173.008 630.865L188.01 636.44L159.205 650.074V650.219L158.771 675.023L216.452 647.01V622.981V622.978ZM326.332 658.273L326.329 658.272L320.863 646.953L332.573 651.512L332.574 651.514L332.575 651.513L348.89 633.867V633.866L325.55 574.151L309.031 592.658L308.932 592.764L320.828 622.325L306.03 616.24L276.051 554.164L258.15 573.526L272.879 602.606L242.721 590.203L224.819 609.565L289.074 634.578L296.306 648.856L265.896 639.319L265.8 639.425L248.642 657.343L310.015 675.92V675.921H310.017L326.332 658.273ZM464.868 622.978L464.865 622.98L453.166 618.378L464.86 613.778L464.861 613.779V613.778V589.747L407.181 561.735L407.615 586.538V586.682L436.422 600.318L421.423 605.892L357.261 580.653V607.019L387.826 618.378L357.257 629.739V656.105L421.424 630.865L436.426 636.44L407.62 650.074V650.219L407.186 675.023L464.868 647.01V622.981V622.978ZM574.748 658.273L574.745 658.272L569.279 646.953L580.988 651.512L580.989 651.514L580.99 651.513H580.991L597.304 633.867V633.866L573.965 574.151L557.446 592.658L557.348 592.764L569.243 622.326L554.445 616.24L524.467 554.164L506.565 573.526L521.295 602.607L491.136 590.203L473.235 609.565L537.49 634.578L544.721 648.856L514.312 639.319L514.214 639.425L497.057 657.343L558.43 675.921H558.432L574.746 658.274L574.748 658.273ZM713.284 622.978L713.28 622.98L701.581 618.378L713.276 613.778L713.277 613.779V613.778V589.747L655.596 561.735L656.031 586.538V586.682L684.837 600.318L669.838 605.892L605.677 580.653V607.019L636.242 618.378L605.671 629.739V656.105L669.838 630.865L684.842 636.44L656.036 650.074V650.219L655.602 675.023L713.284 647.01V622.981V622.978ZM611.772 450.055L611.774 450.056L617.24 461.373L605.53 456.815V456.814L589.214 474.462L612.552 534.177L629.073 515.669L629.171 515.564L617.275 486.002L632.073 492.087L662.054 554.163L679.953 534.802L665.223 505.72L695.382 518.122L713.284 498.761L649.028 473.747L641.796 459.471L672.207 469.009L672.304 468.903L689.463 450.985L628.087 432.406L611.772 450.055ZM473.23 485.349L473.231 485.348L484.931 489.95L473.238 494.549L473.236 494.548V494.55V518.58L530.918 546.593L530.483 521.789V521.644L501.678 508.01L516.675 502.437L580.837 527.674V501.307L550.274 489.949L580.842 478.589V452.223L516.676 477.463L501.672 471.886L530.477 458.252V458.108L530.912 433.305L473.23 461.317V485.348V485.349ZM363.351 450.055L363.353 450.056L368.819 461.373L357.109 456.815V456.814L340.793 474.462L364.131 534.177L380.651 515.669L380.75 515.564L368.854 486.002L383.652 492.087L413.633 554.163L431.533 534.802L416.802 505.72L446.961 518.122L464.863 498.761L400.607 473.748L393.375 459.471L423.786 469.009L423.883 468.903L441.043 450.985L379.666 432.406L363.351 450.055ZM224.814 485.349L224.815 485.348L236.515 489.95L224.823 494.549L224.82 494.548V494.55V518.58L282.502 546.593L282.067 521.789V521.644L253.262 508.01L268.259 502.437L332.421 527.674V501.307L301.858 489.949L332.426 478.589V452.223L268.26 477.463L253.256 471.886L282.063 458.252V458.108L282.497 433.305L224.814 461.317V485.348V485.349ZM114.935 450.055L114.937 450.056L120.403 461.373L108.693 456.815V456.814L92.3777 474.462L115.715 534.177L132.236 515.669L132.336 515.564L120.439 486.002L135.237 492.087L165.218 554.163L183.118 534.802L168.386 505.72L198.547 518.122L216.447 498.761L152.191 473.748L144.96 459.471L175.37 469.009L175.467 468.903L192.627 450.985L131.25 432.406L114.935 450.055ZM-23.6006 485.349L-23.5995 485.348L-11.8994 489.95L-23.5919 494.549L-23.5941 494.548V494.55V518.58L34.0865 546.593L33.6525 521.789V521.644L4.84674 508.01L19.8448 502.437L84.0051 527.674V501.307L53.4435 489.949L84.0106 478.589V452.223L19.8448 477.463L4.84021 471.886L33.6471 458.252V458.108L34.0811 433.305L-23.6006 461.317V485.348V485.349ZM-133.481 450.055L-133.478 450.056L-128.013 461.373L-139.723 456.815V456.814L-156.038 474.462L-132.7 534.177L-116.179 515.669L-116.08 515.564L-127.976 486.002L-113.179 492.087L-83.1982 554.163L-65.2979 534.802L-80.0296 505.72L-49.8691 518.122L-31.9677 498.761L-96.2245 473.747L-103.456 459.471L-73.0457 469.009L-72.9482 468.903L-55.7888 450.985L-117.165 432.406L-133.481 450.055ZM-272.016 485.349L-272.015 485.348L-260.315 489.95L-272.008 494.549L-272.01 494.548V494.55V518.58L-214.329 546.593L-214.763 521.789V521.644L-243.569 508.01L-228.571 502.436L-164.409 527.674V501.307L-194.972 489.949L-164.405 478.589V452.223L-228.571 477.463L-243.576 471.886L-214.769 458.252V458.108L-214.335 433.305L-272.016 461.317V485.348V485.349ZM-381.896 450.055L-381.893 450.056L-376.427 461.373L-388.138 456.815V456.814L-404.454 474.462L-381.116 534.177L-364.594 515.669L-364.496 515.564L-376.392 486.002L-361.594 492.088L-331.614 554.163L-313.714 534.802L-328.445 505.72L-298.285 518.122L-280.383 498.761L-344.64 473.747L-351.872 459.471L-321.46 469.009L-321.364 468.903L-304.204 450.985L-365.581 432.406L-381.896 450.055ZM-520.432 485.349L-520.431 485.348L-508.731 489.95L-520.423 494.549L-520.425 494.548V494.55V518.58L-462.745 546.593L-463.179 521.789V521.644L-491.985 508.01L-476.987 502.436L-412.825 527.674V501.307L-443.388 489.949L-412.821 478.589V452.223L-476.987 477.463L-491.991 471.886L-463.184 458.252V458.108L-462.75 433.305L-520.432 461.317V485.348V485.349ZM-630.312 450.055L-630.309 450.056L-624.843 461.373L-636.553 456.815V456.814L-652.868 474.462L-629.532 534.177L-613.01 515.669L-612.911 515.564L-624.808 486.002L-610.009 492.087L-580.03 554.163L-562.129 534.802L-576.86 505.72L-546.7 518.122L-528.799 498.761L-593.055 473.747L-600.286 459.472L-569.876 469.009L-569.778 468.903L-552.62 450.985L-613.995 432.406L-630.312 450.055ZM-768.848 485.349L-768.847 485.348L-757.146 489.95L-768.839 494.549L-768.841 494.548V494.55V518.58L-711.16 546.593L-711.594 521.789V521.644L-740.399 508.01L-725.402 502.437L-661.241 527.674V501.307L-691.804 489.949L-661.235 478.589V452.223L-725.401 477.463L-740.406 471.886L-711.6 458.252V458.108L-711.166 433.305L-768.848 461.317V485.348V485.349ZM-667.336 407.186L-667.338 407.185L-672.805 395.866L-661.095 400.425L-661.094 400.427L-661.093 400.426L-644.778 382.781V382.78L-668.117 323.063L-684.637 341.571L-684.735 341.677L-672.839 371.24L-687.638 365.154L-717.616 303.078L-735.517 322.439L-720.787 351.521L-750.946 339.117L-768.848 358.478L-704.593 383.492L-697.361 397.769L-727.771 388.232L-727.868 388.339L-745.026 406.256L-683.652 424.834H-683.651L-667.337 407.188V407.187L-667.336 407.186ZM-528.794 371.892L-528.796 371.893L-540.495 367.292L-528.801 362.691L-528.8 362.692V362.691V338.66L-586.482 310.649L-586.047 335.451V335.596L-557.242 349.23L-572.239 354.805L-636.4 329.566V355.932L-605.838 367.292L-636.406 378.652V405.018L-572.239 379.779L-557.235 385.354L-586.041 398.988V399.133L-586.476 423.936L-528.794 395.924V371.894V371.892ZM-418.915 407.186L-418.917 407.185L-424.384 395.866L-412.674 400.425L-412.673 400.427L-412.672 400.426L-396.357 382.781V382.78L-419.696 323.063L-436.215 341.571L-436.314 341.677L-424.418 371.24L-439.216 365.154L-469.196 303.078L-487.097 322.439L-472.367 351.52L-502.525 339.117L-520.426 358.478L-456.173 383.491L-448.94 397.769L-479.35 388.232L-479.447 388.339L-496.605 406.256L-435.231 424.834H-435.23L-418.916 407.188V407.187L-418.915 407.186ZM-280.378 371.892L-280.38 371.893L-292.079 367.292L-280.386 362.691L-280.384 362.692V362.691V338.66L-338.066 310.649L-337.631 335.451V335.596L-308.826 349.23L-323.823 354.805L-387.985 329.566V355.932L-357.422 367.292L-387.99 378.652V405.018L-323.823 379.779L-308.821 385.354L-337.627 398.988V399.133L-338.061 423.936L-280.378 395.924V371.894V371.892ZM-170.499 407.186L-170.501 407.185L-175.968 395.866L-164.258 400.425L-164.257 400.427L-164.256 400.426L-147.942 382.781V382.78L-171.28 323.063L-187.8 341.571L-187.899 341.677L-176.003 371.24L-190.801 365.154L-220.78 303.078L-238.682 322.439L-223.951 351.521L-254.11 339.117L-272.011 358.478L-207.757 383.491L-200.525 397.769L-230.934 388.232L-231.031 388.339L-248.19 406.256L-186.816 424.834H-186.814L-170.5 407.188V407.187L-170.499 407.186ZM-31.9633 371.892L-31.9655 371.893L-43.6646 367.292L-31.971 362.691L-31.9699 362.692V362.691V338.66L-89.6505 310.649L-89.2165 335.451V335.596L-60.4107 349.23L-75.4088 354.805L-139.569 329.566V355.932L-109.006 367.292L-139.575 378.652V405.018L-75.4077 379.779L-60.4052 385.354L-89.2111 398.988V399.133L-89.6451 423.936L-31.9633 395.924V371.894V371.892ZM77.9167 407.186L77.9145 407.185L72.4475 395.866L84.1575 400.425L84.1586 400.427L84.1597 400.426L100.474 382.781V382.78L77.1353 323.063L60.6148 341.571L60.5162 341.677L72.4125 371.24L57.615 365.154L27.6354 303.078L9.73395 322.439L24.4645 351.521L-5.69482 339.117L-23.5963 358.478L40.6595 383.492L47.8911 397.769L17.4818 388.232L17.3842 388.339L0.225891 406.256L61.6001 424.834H61.6013L77.9156 407.188V407.187L77.9167 407.186ZM216.452 371.892L216.45 371.893L204.751 367.292L216.445 362.691L216.446 362.692V362.691V338.66L158.765 310.649L159.199 335.451V335.596L188.005 349.23L173.007 354.805L108.845 329.566V355.932L139.409 367.292L108.841 378.652V405.018L173.008 379.779L188.01 385.354L159.205 398.988V399.133L158.771 423.936L216.452 395.924V371.894V371.892ZM326.332 407.186L326.329 407.185L320.862 395.866L332.573 400.425L332.574 400.427L332.575 400.426L348.89 382.781V382.78L325.55 323.063L309.031 341.571L308.932 341.677L320.828 371.24L306.03 365.154L276.051 303.078L258.15 322.439L272.88 351.521L242.721 339.117L224.819 358.478L289.074 383.491L296.306 397.769L265.896 388.232L265.8 388.339L248.642 406.256L310.015 424.833V424.834H310.017L326.332 407.186ZM464.868 371.892L464.866 371.893L453.167 367.292L464.86 362.691L464.861 362.692V362.691V338.66L407.181 310.649L407.615 335.451V335.596L436.421 349.23L421.423 354.805L357.261 329.566V355.932L387.825 367.292L357.257 378.652V405.018L421.424 379.779L436.426 385.354L407.62 398.988V399.133L407.186 423.936L464.868 395.924V371.894V371.892ZM574.748 407.186L574.745 407.185L569.278 395.866L580.988 400.425L580.989 400.427L580.99 400.426H580.991L597.304 382.781V382.78L573.965 323.063L557.446 341.571L557.348 341.677L569.244 371.24L554.445 365.154L524.467 303.078L506.565 322.439L521.296 351.521L491.136 339.117L473.235 358.478L537.49 383.491L544.721 397.769L514.312 388.232L514.214 388.339L497.057 406.256L558.43 424.834H558.432L574.746 407.188L574.748 407.186ZM713.284 371.892L713.281 371.893L701.583 367.292L713.276 362.691L713.277 362.692V362.691V338.66L655.596 310.649L656.031 335.451V335.596L684.835 349.23L669.838 354.805L605.677 329.566V355.932L636.24 367.292L605.671 378.652V405.018L669.838 379.779L684.842 385.354L656.036 398.988V399.133L655.602 423.936L713.284 395.924V371.894V371.892ZM611.772 198.967L611.774 198.968L617.241 210.287L605.531 205.728L605.53 205.726L589.214 223.374L612.552 283.09L629.073 264.582L629.171 264.476L617.275 234.914L632.073 241.001L662.054 303.077L679.953 283.716L665.222 254.633L695.382 267.036L713.284 247.675L649.028 222.661L641.796 208.384L672.207 217.922L672.304 217.815L689.463 199.898L628.087 181.32L611.772 198.967ZM473.23 234.262L473.231 234.261L484.93 238.864L473.237 243.463L473.236 243.462V243.463V267.493L530.918 295.506L530.483 270.703V270.558L501.677 256.924L516.675 251.35L580.837 276.586V250.221L550.274 238.863L580.842 227.502V201.136L516.675 226.376L501.672 220.8L530.477 207.166V207.021L530.912 182.219L473.23 210.23V234.261V234.262ZM363.351 198.967L363.353 198.968L368.82 210.287L357.11 205.728L357.109 205.726L340.793 223.374L364.131 283.09L380.651 264.582L380.75 264.476L368.854 234.914L383.652 241.001L413.633 303.077L431.533 283.716L416.802 254.634L446.961 267.036L464.863 247.675L400.607 222.662L393.374 208.384L423.786 217.922L423.883 217.815L441.043 199.898L379.666 181.32L363.351 198.967ZM224.814 234.262L224.815 234.261L236.514 238.864L224.822 243.463L224.82 243.462V243.463V267.493L282.502 295.506L282.067 270.703V270.558L253.261 256.924L268.259 251.35L332.421 276.586V250.221L301.858 238.863L332.426 227.502V201.136L268.259 226.376L253.257 220.8L282.063 207.166V207.021L282.497 182.219L224.814 210.23V234.261V234.262ZM114.935 198.967L114.937 198.968L120.404 210.287L108.694 205.728L108.693 205.726L92.3777 223.374L115.715 283.09L132.236 264.582L132.336 264.476L120.439 234.914L135.237 241.001L165.218 303.077L183.118 283.716L168.386 254.633L198.547 267.036L216.447 247.675L152.191 222.662L144.959 208.384L175.37 217.922L175.467 217.815L192.627 199.898L131.25 181.32L114.935 198.967ZM-23.6006 234.262L-23.5995 234.261L-11.9006 238.864L-23.593 243.463L-23.5941 243.462V243.463V267.493L34.0865 295.506L33.6525 270.703V270.558L4.84674 256.923L19.8437 251.35L84.0051 276.586V250.221L53.4435 238.863L84.0106 227.502V201.136L19.8448 226.376L4.84125 220.8L33.6471 207.166V207.021L34.0811 182.219L-23.6006 210.23V234.261V234.262ZM-133.481 198.967L-133.478 198.968L-128.011 210.287L-139.721 205.728L-139.723 205.726L-156.038 223.374L-132.7 283.09L-116.179 264.582L-116.08 264.476L-127.976 234.914L-113.179 241.001L-83.1982 303.077L-65.2979 283.716L-80.0296 254.633L-49.8691 267.036L-31.9677 247.675L-96.2245 222.661L-103.456 208.384L-73.0457 217.922L-72.9482 217.815L-55.7888 199.898L-117.165 181.32L-133.481 198.967ZM-272.016 234.262L-272.015 234.261L-260.316 238.864L-272.009 243.463L-272.01 243.462V243.463V267.493L-214.329 295.506L-214.763 270.703V270.558L-243.569 256.923L-228.571 251.35L-164.409 276.586V250.221L-194.972 238.863L-164.405 227.502V201.136L-228.571 226.376L-243.574 220.8L-214.769 207.166V207.021L-214.335 182.219L-272.016 210.23V234.261V234.262ZM-381.896 198.967L-381.893 198.968L-376.426 210.288L-388.137 205.728L-388.138 205.726L-404.454 223.374L-381.116 283.09L-364.594 264.582L-364.496 264.476L-376.392 234.914L-361.594 241.001L-331.614 303.077L-313.714 283.716L-328.445 254.633L-298.285 267.036L-280.383 247.675L-344.64 222.661L-351.872 208.384L-321.46 217.922L-321.364 217.815L-304.204 199.898L-365.581 181.32L-381.896 198.967ZM-520.432 234.262L-520.431 234.261L-508.732 238.864L-520.424 243.463L-520.425 243.462V243.463V267.493L-462.745 295.506L-463.179 270.703V270.558L-491.985 256.923L-476.987 251.35L-412.825 276.586V250.221L-443.388 238.863L-412.821 227.502V201.136L-476.987 226.376L-491.99 220.8L-463.184 207.166V207.021L-462.75 182.219L-520.432 210.23V234.261V234.262ZM-630.312 198.967L-630.309 198.968L-624.843 210.287L-636.552 205.728L-636.553 205.726L-652.868 223.374L-629.532 283.09L-613.01 264.582L-612.911 264.476L-624.808 234.914L-610.009 241.001L-580.03 303.077L-562.129 283.716L-576.861 254.633L-546.7 267.036L-528.799 247.675L-593.055 222.661L-600.286 208.384L-569.876 217.922L-569.778 217.815L-552.62 199.898L-613.995 181.32L-630.312 198.967ZM-768.848 234.262L-768.847 234.261L-757.148 238.864L-768.84 243.463L-768.841 243.462V243.463V267.493L-711.16 295.506L-711.594 270.703V270.558L-740.4 256.924L-725.402 251.35L-661.241 276.586V250.221L-691.804 238.863L-661.235 227.502V201.136L-725.402 226.376L-740.406 220.8L-711.6 207.166V207.021L-711.166 182.219L-768.848 210.23V234.261V234.262ZM-667.336 156.1L-667.338 156.099L-672.804 144.781L-661.095 149.339L-661.094 149.341L-661.093 149.34L-644.778 131.694V131.693L-668.117 71.9771L-684.637 90.4844L-684.735 90.5907L-672.84 120.153L-687.638 114.066L-717.616 51.9916L-735.517 71.3525L-720.788 100.433L-750.946 88.0298L-768.848 107.392L-704.593 132.406L-697.361 146.682L-727.771 137.145L-727.868 137.252L-745.026 155.17L-683.652 173.748H-683.651L-667.337 156.101L-667.336 156.1ZM-528.794 120.806L-528.796 120.807L-540.496 116.204L-528.801 111.604L-528.8 111.605V111.604V87.5739L-586.482 59.5615L-586.047 84.3643V84.5089L-557.24 98.1442L-572.239 103.719L-636.4 78.4797V104.845L-605.836 116.204L-636.406 127.566V153.931L-572.239 128.691L-557.235 134.267L-586.041 147.901V148.047L-586.476 172.849L-528.794 144.837V120.808V120.806ZM-418.915 156.1L-418.917 156.099L-424.383 144.781L-412.674 149.339L-412.673 149.341L-412.672 149.34L-396.357 131.694V131.693L-419.696 71.9771L-436.215 90.4844L-436.314 90.5907L-424.419 120.153L-439.216 114.066L-469.196 51.9916L-487.097 71.3525L-472.368 100.432L-502.525 88.0298L-520.426 107.392L-456.173 132.405L-448.94 146.682L-479.35 137.145L-479.447 137.252L-496.605 155.17L-435.231 173.748H-435.23L-418.916 156.101L-418.915 156.1ZM-280.378 120.806L-280.38 120.807L-292.08 116.204L-280.386 111.604L-280.384 111.605V111.604V87.5739L-338.066 59.5615L-337.631 84.3643V84.5089L-308.824 98.1442L-323.823 103.719L-387.985 78.4797V104.845L-357.42 116.204L-387.99 127.566V153.931L-323.823 128.691L-308.82 134.267L-337.627 147.901V148.047L-338.061 172.849L-280.378 144.837V120.808V120.806ZM-170.499 156.1L-170.501 156.099L-175.967 144.781L-164.258 149.339L-164.257 149.341L-164.256 149.34L-147.942 131.694V131.693L-171.28 71.9771L-187.8 90.4844L-187.899 90.5907L-176.003 120.152L-190.801 114.066L-220.78 51.9916L-238.682 71.3525L-223.952 100.433L-254.11 88.0298L-272.011 107.392L-207.757 132.405L-200.525 146.682L-230.934 137.145L-231.031 137.252L-248.19 155.17L-186.816 173.748H-186.814L-170.5 156.101L-170.499 156.1ZM-31.9633 120.806L-31.9655 120.807L-43.6656 116.204L-31.971 111.604L-31.9699 111.605V111.604V87.5739L-89.6505 59.5615L-89.2165 84.3643V84.5089L-60.4096 98.1442L-75.4088 103.719L-139.569 78.4797V104.845L-109.005 116.204L-139.575 127.566V153.931L-75.4077 128.691L-60.4052 134.267L-89.2111 147.901V148.047L-89.6451 172.849L-31.9633 144.837V120.808V120.806ZM77.9167 156.1L77.9145 156.099L72.4487 144.781L84.1575 149.339L84.1586 149.341L84.1597 149.34L100.474 131.694V131.693L77.1353 71.9771L60.6148 90.4844L60.5162 90.5907L72.4125 120.152L57.615 114.066L27.6354 51.9916L9.73395 71.3525L24.4634 100.433L-5.69482 88.0298L-23.5963 107.392L40.6595 132.406L47.8911 146.682L17.4818 137.145L17.3842 137.252L0.225891 155.17L61.6001 173.748H61.6013L77.9156 156.101L77.9167 156.1ZM216.452 120.806L216.45 120.807L204.75 116.204L216.445 111.604L216.446 111.605V111.604V87.5739L158.765 59.5615L159.199 84.3643V84.5089L188.006 98.1442L173.007 103.719L108.845 78.4797V104.845L139.41 116.204L108.841 127.566V153.931L173.008 128.691L188.01 134.267L159.205 147.901V148.047L158.771 172.849L216.452 144.837V120.808V120.806ZM326.332 156.1L326.329 156.099L320.863 144.78L332.573 149.339L332.574 149.341L332.575 149.34L348.89 131.694V131.693L325.55 71.9771L309.031 90.4844L308.932 90.5907L320.828 120.152L306.03 114.066L276.051 51.9916L258.15 71.3525L272.879 100.432L242.721 88.0298L224.819 107.392L289.074 132.405L296.306 146.682L265.896 137.145L265.8 137.252L248.642 155.17L310.015 173.747V173.748H310.017L326.332 156.1ZM464.868 120.806L464.866 120.807L453.166 116.204L464.86 111.604L464.861 111.605V111.604V87.5739L407.181 59.5615L407.615 84.3643V84.5089L436.422 98.1442L421.423 103.719L357.261 78.4797V104.845L387.826 116.204L357.257 127.566V153.931L421.424 128.691L436.426 134.267L407.62 147.901V148.047L407.186 172.849L464.868 144.837V120.808V120.806ZM574.748 156.1L574.745 156.099L569.279 144.78L580.988 149.339L580.989 149.341L580.99 149.34H580.991L597.304 131.694V131.693L573.965 71.9771L557.446 90.4844L557.348 90.5907L569.243 120.153L554.445 114.066L524.467 51.9916L506.565 71.3525L521.295 100.433L491.136 88.0298L473.235 107.392L537.49 132.405L544.721 146.682L514.312 137.145L514.214 137.252L497.057 155.17L558.43 173.748H558.432L574.746 156.101L574.748 156.1ZM713.284 120.806L713.281 120.807L701.581 116.204L713.276 111.604L713.277 111.605V111.604V87.5739L655.596 59.5615L656.031 84.3643V84.5089L684.837 98.1442L669.838 103.719L605.677 78.4797V104.845L636.242 116.204L605.671 127.566V153.931L669.838 128.691L684.842 134.267L656.036 147.901V148.047L655.602 172.849L713.284 144.837V120.808V120.806ZM611.772 -52.1189L611.774 -52.1178L617.24 -40.8002L605.53 -45.3588V-45.3599L589.214 -27.7117L612.552 32.0038L629.073 13.4954L629.171 13.3902L617.275 -16.1717L632.073 -10.0866L662.054 51.9894L679.953 32.6284L665.223 3.5465L695.382 15.949L713.284 -3.41195L649.028 -28.4262L641.796 -42.7025L672.207 -33.1645L672.304 -33.2708L689.463 -51.1886L628.087 -69.7671L611.772 -52.1189ZM473.23 -16.8248L473.231 -16.8259L484.931 -12.2234L473.237 -7.62319L473.236 -7.62428V-7.62319V16.407L530.918 44.4195L530.483 19.6156V19.4709L501.677 5.83676L516.675 0.263428L580.837 25.5001V-0.866364L550.274 -12.2245L580.842 -23.5849V-49.9503L516.676 -24.7103L501.672 -30.2869L530.477 -43.9211V-44.0657L530.912 -68.8685L473.23 -40.8561V-16.8259V-16.8248ZM363.351 -52.1189L363.353 -52.1178L368.819 -40.8002L357.109 -45.3588V-45.3599L340.793 -27.7117L364.131 32.0038L380.651 13.4954L380.75 13.3902L368.854 -16.1717L383.652 -10.0866L413.633 51.9894L431.533 32.6284L416.802 3.5465L446.961 15.949L464.863 -3.41195L400.607 -28.4251L393.375 -42.7025L423.786 -33.1645L423.883 -33.2708L441.043 -51.1886L379.666 -69.7671L363.351 -52.1189ZM224.814 -16.8248L224.815 -16.8259L236.515 -12.2234L224.822 -7.62319L224.82 -7.62428V-7.62319V16.407L282.502 44.4195L282.067 19.6156V19.4709L253.261 5.83676L268.259 0.263428L332.421 25.5001V-0.866364L301.858 -12.2245L332.426 -23.5849V-49.9503L268.26 -24.7103L253.256 -30.2869L282.063 -43.9211V-44.0657L282.497 -68.8685L224.814 -40.8561V-16.8259V-16.8248ZM114.935 -52.1189L114.937 -52.1178L120.403 -40.8002L108.693 -45.3588V-45.3599L92.3777 -27.7117L115.715 32.0038L132.236 13.4954L132.336 13.3902L120.439 -16.1717L135.237 -10.0866L165.218 51.9894L183.118 32.6284L168.386 3.5465L198.547 15.949L216.447 -3.41195L152.191 -28.4251L144.96 -42.7025L175.37 -33.1645L175.467 -33.2708L192.627 -51.1886L131.25 -69.7671L114.935 -52.1189ZM-23.6006 -16.8248L-23.5995 -16.8259L-11.8994 -12.2234L-23.593 -7.62319L-23.5941 -7.62428V-7.62319V16.407L34.0865 44.4195L33.6525 19.6156V19.4709L4.84674 5.83676L19.8448 0.263428L84.0051 25.5001V-0.866364L53.4435 -12.2245L84.0106 -23.5849V-49.9503L19.8448 -24.7103L4.84021 -30.2869L33.6471 -43.9211V-44.0657L34.0811 -68.8685L-23.6006 -40.8561V-16.8259V-16.8248ZM-133.481 -52.1189L-133.478 -52.1178L-128.013 -40.8002L-139.723 -45.3588V-45.3599L-156.038 -27.7117L-132.7 32.0038L-116.179 13.4954L-116.08 13.3902L-127.976 -16.1717L-113.179 -10.0866L-83.1982 51.9894L-65.2979 32.6284L-80.0296 3.5465L-49.8691 15.949L-31.9677 -3.41195L-96.2245 -28.4262L-103.456 -42.7025L-73.0457 -33.1645L-72.9482 -33.2708L-55.7888 -51.1886L-117.165 -69.7671L-133.481 -52.1189ZM-272.016 -16.8248L-272.015 -16.8259L-260.315 -12.2234L-272.009 -7.62319L-272.01 -7.62428V-7.62319V16.407L-214.329 44.4195L-214.763 19.6156V19.4709L-243.569 5.83676L-228.571 0.262329L-164.409 25.5001V-0.866364L-194.972 -12.2245L-164.405 -23.5849V-49.9503L-228.571 -24.7103L-243.576 -30.2869L-214.769 -43.9211V-44.0657L-214.335 -68.8685L-272.016 -40.8561V-16.8259V-16.8248ZM-381.896 -52.1189L-381.893 -52.1178L-376.427 -40.8002L-388.138 -45.3588V-45.3599L-404.454 -27.7117L-381.116 32.0038L-364.594 13.4954L-364.496 13.3902L-376.392 -16.1717L-361.594 -10.0855L-331.614 51.9894L-313.714 32.6284L-328.445 3.5465L-298.285 15.949L-280.383 -3.41195L-344.64 -28.4262L-351.872 -42.7025L-321.46 -33.1645L-321.364 -33.2708L-304.204 -51.1886L-365.581 -69.7671L-381.896 -52.1189ZM-520.432 -16.8248L-520.431 -16.8259L-508.731 -12.2234L-520.424 -7.62319L-520.425 -7.62428V-7.62319V16.407L-462.745 44.4195L-463.179 19.6156V19.4709L-491.985 5.83676L-476.987 0.262329L-412.825 25.5001V-0.866364L-443.388 -12.2245L-412.821 -23.5849V-49.9503L-476.987 -24.7103L-491.991 -30.2869L-463.184 -43.9211V-44.0657L-462.75 -68.8685L-520.432 -40.8561V-16.8259V-16.8248ZM-630.312 -52.1189L-630.309 -52.1178L-624.843 -40.8002L-636.553 -45.3588V-45.3599L-652.868 -27.7117L-629.532 32.0038L-613.01 13.4954L-612.911 13.3902L-624.808 -16.1717L-610.009 -10.0866L-580.03 51.9894L-562.129 32.6284L-576.86 3.5465L-546.7 15.949L-528.799 -3.41195L-593.055 -28.4262L-600.286 -42.7015L-569.876 -33.1645L-569.778 -33.2708L-552.62 -51.1886L-613.995 -69.7671L-630.312 -52.1189Z" fill="#2261FE" fill-opacity="0.101961"/>
</g>
</g>
<defs>
<clipPath id="clip0_1339_2714">
<rect width="1113.56" height="695.845" fill="white" transform="translate(-584.564 -44.8452)"/>
</clipPath>
</defs>
</svg>
