<svg width="165" height="31" viewBox="0 0 165 31" fill="none" xmlns="http://www.w3.org/2000/svg">
<g clip-path="url(#clip0_1339_2771)">
<path d="M55.579 16.7816H61.7571C62.6249 16.7816 63.3284 17.4903 63.3284 18.3647C63.3284 19.239 62.6249 19.9478 61.7571 19.9478H54.3053C54.1889 19.9478 54.0765 19.9896 53.9881 20.0658L51.7381 22.0053C51.3937 22.3021 51.6021 22.8705 52.0554 22.8705H61.3839C61.3877 22.8705 61.3909 22.8673 61.3909 22.8635C61.3909 22.8594 61.3943 22.8562 61.3984 22.8565C61.5158 22.8657 61.6344 22.8705 61.7541 22.8705C64.2287 22.8705 66.2347 20.8532 66.2347 18.3647C66.2347 16.0016 64.4257 14.0634 62.1244 13.8741C62.1204 13.8737 62.1174 13.8704 62.1174 13.8665C62.1174 13.8623 62.1141 13.8589 62.1099 13.8589H55.4542C54.5864 13.8589 53.8829 13.1501 53.8829 12.2758C53.8829 11.4015 54.5864 10.6927 55.4542 10.6927H62.8956C63.0182 10.6927 63.1362 10.6462 63.2263 10.5626L65.3156 8.62322C65.6424 8.31984 65.4293 7.77002 64.9849 7.77002H55.579C55.5786 7.77002 55.5782 7.77032 55.5782 7.77077C55.5782 7.77122 55.5778 7.77159 55.5774 7.77159C55.5374 7.77054 55.4973 7.77002 55.4571 7.77002C52.9825 7.77002 50.9766 9.7873 50.9766 12.2758C50.9766 14.7642 52.9825 16.7816 55.4571 16.7816C55.4973 16.7816 55.5374 16.781 55.5774 16.7799C55.5778 16.7799 55.5782 16.7803 55.5782 16.7808C55.5782 16.7812 55.5786 16.7816 55.579 16.7816Z" fill="#1C1C1C"/>
<path d="M91.5635 7.77002C91.293 7.77002 91.0742 7.99008 91.0742 8.26162V22.3789C91.0742 22.6503 91.293 22.8705 91.5635 22.8705H102.876C103.011 22.8705 103.141 22.8142 103.233 22.7151L104.649 21.1966C104.942 20.8826 104.72 20.3687 104.292 20.3687H94.4145C94.1448 20.3687 93.9252 20.1486 93.9252 19.8771V8.26162C93.9252 7.99008 93.7064 7.77002 93.4367 7.77002H91.5635Z" fill="#1C1C1C"/>
<path fill-rule="evenodd" clip-rule="evenodd" d="M73.4443 7.77002C73.4436 7.77002 73.443 7.77062 73.443 7.77129C73.443 7.77204 73.4424 7.77264 73.4417 7.77264C71.9958 7.83528 70.8347 8.99884 70.7722 10.4479C70.7722 10.4485 70.7716 10.4491 70.7709 10.4491C70.7705 10.4491 70.7701 10.4493 70.7699 10.4496C70.7697 10.4498 70.7695 10.4501 70.7695 10.4504V19.9466C70.7695 19.9472 70.7701 19.9478 70.7708 19.9478C70.7716 19.9478 70.7722 19.9484 70.7721 19.9491C70.7704 19.989 70.7695 20.0292 70.7695 20.0696C70.7695 21.5753 71.955 22.8034 73.4417 22.8678C73.4424 22.8678 73.443 22.8684 73.443 22.8691L73.4431 22.8697L73.4435 22.8702C73.4437 22.8704 73.444 22.8705 73.4443 22.8705H83.7092C83.7099 22.8705 83.7107 22.8699 83.7107 22.8691V22.8684L83.7114 22.868L83.7122 22.8678C85.1988 22.8034 86.3841 21.5753 86.3841 20.0696C86.3841 20.0292 86.3834 19.989 86.3819 19.9491C86.3819 19.9484 86.3819 19.9478 86.3826 19.9478C86.3834 19.9478 86.3841 19.9472 86.3841 19.9466V10.4504C86.3841 10.4497 86.3834 10.4491 86.3826 10.4491C86.3819 10.4491 86.3811 10.4485 86.3811 10.4479C86.3189 8.99884 85.1576 7.83528 83.7122 7.77264C83.7114 7.77264 83.7107 7.77204 83.7107 7.77129C83.7107 7.77062 83.7099 7.77002 83.7092 7.77002H73.4443ZM75.3577 10.4491L75.357 10.4494V10.45C75.357 10.4504 75.3562 10.4508 75.3562 10.4508C74.4524 10.4902 73.7268 11.2221 73.6877 12.1336C73.6877 12.134 73.6873 12.1343 73.6868 12.1343C73.6864 12.1343 73.686 12.1347 73.686 12.1352V18.1086C73.686 18.109 73.6864 18.1093 73.6868 18.1093C73.6873 18.1093 73.6877 18.1097 73.6876 18.1101C73.6865 18.1353 73.686 18.1606 73.686 18.186C73.686 19.1331 74.427 19.9056 75.3562 19.9461C75.3562 19.9461 75.357 19.9466 75.357 19.9469V19.9474V19.9477L75.3577 19.9478H81.7963V19.9478V19.9474L81.797 19.9469C81.797 19.9466 81.797 19.9462 81.7978 19.9461C82.7269 19.9056 83.4679 19.1331 83.4679 18.186C83.4679 18.1606 83.4672 18.1353 83.4664 18.1101V18.11V18.1098L83.4672 18.1093C83.4672 18.1093 83.4679 18.109 83.4679 18.1086V12.1352C83.4679 12.1347 83.4672 12.1343 83.4672 12.1343C83.4664 12.1343 83.4657 12.134 83.4657 12.1336C83.4267 11.2221 82.7014 10.4902 81.7978 10.4508C81.797 10.4508 81.797 10.4504 81.797 10.45L81.7963 10.4495V10.4492V10.4491H75.3577Z" fill="#1C1C1C"/>
<path fill-rule="evenodd" clip-rule="evenodd" d="M121.099 22.3789C121.099 22.6503 121.316 22.8705 121.584 22.8705H123.502C123.77 22.8705 123.988 22.6503 123.988 22.3789V10.6939C123.988 10.6933 123.987 10.6927 123.986 10.6927L123.985 10.6925V10.6924C123.985 10.6921 123.985 10.6918 123.985 10.6913C123.987 10.6514 123.988 10.6112 123.988 10.5709C123.988 9.06522 122.814 7.83708 121.34 7.77264C121.34 7.77264 121.34 7.77204 121.34 7.77129C121.34 7.77062 121.339 7.77002 121.338 7.77002H111.484C111.483 7.77002 111.482 7.77054 111.482 7.77129C111.482 7.77197 111.481 7.77257 111.481 7.77257C111.442 7.77084 111.402 7.77002 111.362 7.77002C109.833 7.77002 108.594 9.02401 108.594 10.5709C108.594 10.6112 108.594 10.6514 108.596 10.6913C108.596 10.6921 108.595 10.6927 108.594 10.6927C108.594 10.6927 108.594 10.6933 108.594 10.6939V22.3789C108.594 22.6503 108.811 22.8705 109.079 22.8705H110.997C111.265 22.8705 111.482 22.6503 111.482 22.3789V17.5168C111.482 17.2453 111.7 17.0251 111.967 17.0251H120.614C120.882 17.0251 121.099 17.2453 121.099 17.5168V22.3789ZM111.482 14.3415V11.9105C111.482 10.9688 112.237 10.2056 113.167 10.2056H119.414C120.345 10.2056 121.099 10.9688 121.099 11.9105V14.3415C121.099 14.613 120.882 14.8331 120.614 14.8331H111.967C111.7 14.8331 111.482 14.613 111.482 14.3415Z" fill="#1C1C1C"/>
<path fill-rule="evenodd" clip-rule="evenodd" d="M161.599 22.8705C161.328 22.8705 161.109 22.6503 161.109 22.3789V17.5168C161.109 17.2453 160.889 17.0251 160.62 17.0251H151.877C151.606 17.0251 151.388 17.2453 151.388 17.5168V22.3789C151.388 22.6503 151.168 22.8705 150.898 22.8705H148.961C148.69 22.8705 148.471 22.6503 148.471 22.3789V10.6939V10.6936L148.471 10.6932C148.471 10.6929 148.471 10.6927 148.472 10.6927C148.473 10.6927 148.474 10.6921 148.474 10.6913C148.471 10.6514 148.471 10.6112 148.471 10.5709C148.471 9.02401 149.722 7.77002 151.266 7.77002C151.306 7.77002 151.346 7.77084 151.386 7.77257C151.387 7.77257 151.388 7.77197 151.388 7.77129C151.388 7.77054 151.388 7.77002 151.388 7.77002H161.351C161.352 7.77002 161.352 7.77062 161.352 7.77129C161.352 7.77204 161.352 7.77264 161.353 7.77264C162.84 7.83708 164.025 9.06522 164.025 10.5709C164.025 10.6112 164.024 10.6514 164.023 10.6913C164.023 10.6921 164.023 10.6927 164.024 10.6927C164.024 10.6927 164.025 10.6928 164.025 10.693C164.025 10.6933 164.025 10.6936 164.025 10.6939V22.3789C164.025 22.6503 163.806 22.8705 163.536 22.8705H161.599ZM151.388 11.9105V14.3415C151.388 14.613 151.606 14.8331 151.877 14.8331H160.62C160.889 14.8331 161.109 14.613 161.109 14.3415V11.9105C161.109 10.9688 160.348 10.2056 159.408 10.2056H153.089C152.149 10.2056 151.388 10.9688 151.388 11.9105Z" fill="#1C1C1C"/>
<path d="M131.208 7.77002C131.351 7.77002 131.486 7.83311 131.578 7.94265L140.182 18.2001C140.475 18.5479 141.036 18.3381 141.036 17.8811V8.26162C141.036 7.99008 141.253 7.77002 141.521 7.77002H143.44C143.708 7.77002 143.925 7.99008 143.925 8.26162V22.3789C143.925 22.6503 143.708 22.8705 143.44 22.8705H141.055C141.044 22.8705 141.036 22.8622 141.036 22.8521C141.036 22.8477 141.034 22.8433 141.031 22.84L132.283 12.654C131.988 12.3119 131.432 12.5232 131.432 12.9774V22.3789C131.432 22.6503 131.215 22.8705 130.947 22.8705H129.016C128.749 22.8705 128.531 22.6503 128.531 22.3789V8.26162C128.531 7.99008 128.749 7.77002 129.016 7.77002H131.208Z" fill="#1C1C1C"/>
<path d="M6.37183 23.3904C6.61106 23.1514 6.93542 23.0171 7.27362 23.0171H38.4781C39.0465 23.0171 39.3311 23.7044 38.929 24.1062L32.7631 30.2673C32.5238 30.5063 32.1995 30.6406 31.8613 30.6406H0.656778C0.0883289 30.6406 -0.196234 29.9532 0.205879 29.5514L6.37183 23.3904Z" fill="url(#paint0_linear_1339_2771)"/>
<path d="M6.37183 0.373326C6.61106 0.134279 6.93542 0 7.27362 0H38.4781C39.0465 0 39.3311 0.687383 38.929 1.08917L32.7631 7.25021C32.5238 7.48926 32.1995 7.62354 31.8613 7.62354H0.656778C0.0883289 7.62354 -0.196234 6.93615 0.205879 6.53436L6.37183 0.373326Z" fill="url(#paint1_linear_1339_2771)"/>
<path d="M32.7631 11.8084C32.5238 11.5694 32.1995 11.4351 31.8613 11.4351H0.656778C0.0883292 11.4351 -0.196235 12.1224 0.205879 12.5243L6.37183 18.6853C6.61106 18.9243 6.93542 19.0586 7.27362 19.0586H38.4781C39.0465 19.0586 39.3311 18.3712 38.929 17.9694L32.7631 11.8084Z" fill="url(#paint2_linear_1339_2771)"/>
</g>
<defs>
<linearGradient id="paint0_linear_1339_2771" x1="26.4513" y1="-8.40513" x2="4.85513" y2="32.9602" gradientUnits="userSpaceOnUse">
<stop stop-color="#00FFA3"/>
<stop offset="1" stop-color="#DC1FFF"/>
</linearGradient>
<linearGradient id="paint1_linear_1339_2771" x1="26.4513" y1="-8.40496" x2="4.85513" y2="32.9604" gradientUnits="userSpaceOnUse">
<stop stop-color="#00FFA3"/>
<stop offset="1" stop-color="#DC1FFF"/>
</linearGradient>
<linearGradient id="paint2_linear_1339_2771" x1="26.4513" y1="-8.40517" x2="4.85513" y2="32.9602" gradientUnits="userSpaceOnUse">
<stop stop-color="#00FFA3"/>
<stop offset="1" stop-color="#DC1FFF"/>
</linearGradient>
<clipPath id="clip0_1339_2771">
<rect width="164.092" height="30.6455" fill="white"/>
</clipPath>
</defs>
</svg>
