<svg width="75" height="75" viewBox="0 0 75 75" fill="none" xmlns="http://www.w3.org/2000/svg">
<rect width="75" height="75" rx="37.5" fill="#F5F5F5"/>
<path d="M28.576 32.9828L32.864 36.0457C33.0872 36.205 33.1987 36.2847 33.3155 36.3031C33.4182 36.3192 33.5234 36.3029 33.6165 36.2565C33.7222 36.2037 33.8045 36.094 33.969 35.8747L34.8751 34.6665C34.9216 34.6045 34.9449 34.5735 34.9722 34.5467C34.9965 34.523 35.0232 34.5017 35.0517 34.4834C35.0839 34.4627 35.1193 34.447 35.1902 34.4155L39.0588 32.6961C39.2192 32.6248 39.2993 32.5892 39.3598 32.5335C39.4133 32.4843 39.4554 32.424 39.4832 32.3568C39.5146 32.2809 39.5204 32.1934 39.5321 32.0183L39.8154 27.7694M39 39L41.616 40.1211C41.9195 40.2512 42.0713 40.3163 42.1517 40.4243C42.2222 40.5191 42.2569 40.6358 42.2496 40.7537C42.2413 40.8881 42.1497 41.0255 41.9665 41.3002L40.7375 43.1438C40.6507 43.274 40.6072 43.3391 40.5499 43.3863C40.4991 43.428 40.4406 43.4593 40.3777 43.4784C40.3067 43.5 40.2284 43.5 40.0719 43.5H38.0766C37.8693 43.5 37.7656 43.5 37.6774 43.4653C37.5995 43.4347 37.5305 43.385 37.4768 43.3208C37.416 43.2481 37.3832 43.1497 37.3177 42.953L36.6048 40.8144C36.5661 40.6983 36.5468 40.6403 36.5417 40.5814C36.5372 40.5291 36.5409 40.4764 36.5528 40.4253C36.5662 40.3677 36.5935 40.313 36.6482 40.2036L37.1897 39.1206C37.2997 38.9005 37.3547 38.7905 37.4395 38.7222C37.5141 38.662 37.6046 38.6246 37.6999 38.6143C37.8081 38.6027 37.9248 38.6416 38.1582 38.7194L39 39ZM47.5 37.5C47.5 43.0228 43.0228 47.5 37.5 47.5C31.9772 47.5 27.5 43.0228 27.5 37.5C27.5 31.9772 31.9772 27.5 37.5 27.5C43.0228 27.5 47.5 31.9772 47.5 37.5Z" stroke="#2261FE" stroke-width="2" stroke-linecap="round" stroke-linejoin="round"/>
</svg>
